<svg xmlns="http://www.w3.org/2000/svg" baseProfile="tiny" version="1.2" viewBox="0 0 170.1 170.1"><path fill="#189EFF" d="M112.2 142.1H156c0-4.3-4.2-13.4-27.8-13.4 0 0 13.8-10.6 13.8-22.2 0-4-1.8-8.9-13.7-8.6 8.2-6.3 13.1-14.5 13.1-23.4 0-11.3-7.9-21.3-20.3-28 .7-2.6 1.1-5.5 1.1-8.4 0-13.2-7.6-23.9-17.1-23.9S88 24.9 88 38.1v.1c-1 0-2-.1-3-.1s-2 0-3 .1v-.1c0-13.2-7.6-23.9-17.1-23.9s-17 10.7-17 23.9c0 3 .4 5.8 1.1 8.4-12.4 6.7-20.3 16.7-20.3 28 0 8.9 4.9 17.1 13.1 23.4-11.9-.3-13.7 4.5-13.7 8.6 0 11.6 13.8 22.2 13.8 22.2-23.6 0-27.8 9.1-27.8 13.4h42.5c-2.2 1.6-4.4 4.1-4.4 6.4 0 1.3.9 1.9 1.8 1.9 2.4 0 6.6-2.4 6.6-2.4s1.3 7.9 3.5 7.9c2.1 0 4.8-7.8 4.8-7.8s4.8 1.8 7.1 1.8c1.7 0 1.8-1.3 1.8-1.5 0-1.9-2-4.5-3.6-6.4h20.3c-1.6 1.8-3.6 4.4-3.6 6.4 0 .2.1 1.5 1.8 1.5 2.2 0 7.1-1.8 7.1-1.8s2.7 7.8 4.8 7.8c2.1 0 3.5-7.9 3.5-7.9s4.2 2.4 6.6 2.4c1 0 1.8-.6 1.8-1.9 0-2.3-2.1-4.8-4.3-6.4z"/><ellipse cx="64.9" cy="46.3" fill="#FFF" rx="11.9" ry="15.2"/><path fill="#1D1D1B" d="M64.9 37.7C60 37.7 56 42 56 47.4s4 9.6 8.9 9.6 8.9-4.3 8.9-9.6-4-9.7-8.9-9.7zm-2.1 10.6c-2.3 0-4.2-2.1-4.2-4.7s1.9-4.7 4.2-4.7c2.3 0 4.2 2.1 4.2 4.7.1 2.6-1.8 4.7-4.2 4.7zm6.6-1.8c-.8 0-1.5-.7-1.5-1.5s.7-1.5 1.5-1.5 1.5.7 1.5 1.5-.7 1.5-1.5 1.5z"/><ellipse cx="105.2" cy="46.3" fill="#FFF" rx="11.9" ry="15.2"/><path fill="#1D1D1B" d="M105.1 37.7c-4.9 0-8.9 4.3-8.9 9.6s4 9.6 8.9 9.6 8.9-4.3 8.9-9.6-4-9.6-8.9-9.6zm-2 10.6c-2.3 0-4.2-2.1-4.2-4.7s1.9-4.7 4.2-4.7c2.3 0 4.2 2.1 4.2 4.7s-1.9 4.7-4.2 4.7zm6.5-1.8c-.8 0-1.5-.7-1.5-1.5s.7-1.5 1.5-1.5 1.5.7 1.5 1.5-.7 1.5-1.5 1.5z"/><g fill="#1D1D1B"><ellipse cx="80.2" cy="79.1" rx="1.2" ry="1.5"/><ellipse cx="90.3" cy="79.1" rx="1.2" ry="1.5"/><path d="M55.1 97.6s17.1 6.7 31.9 6.7 28.4-7.5 28.4-7.5-12.8 9.4-29.7 9.4c-13.6-.1-30.6-8.6-30.6-8.6z"/></g><path fill="#FFF" d="M85 111c-10.8 0-21-2-29.6-5.4v2.2c0 15.8 13.2 28.6 29.6 28.6s29.6-12.8 29.6-28.6v-2.2C106 109 95.9 111 85 111z"/><g fill="#189EFF"><path d="M89.5 127.4c-.6-.5-1.6-.8-2.6-1.2-1.2-.5-2.5-1-3.5-1.8-1.1-.9-1.7-2-1.7-3.5 0-1.3.5-2.4 1.5-3.2 1.1-.9 2.9-1.4 5-1.4.6 0 1.1 0 1.7.1 0 0 .1 0 .1-.1v-.1c-1.3-1.2-3.1-1.9-4.9-1.9-1.9 0-3.8.8-5.1 2.1-1.4 1.4-2.1 3.2-2.1 5.1 0 1.9.8 3.7 2.1 5.1 1.4 1.4 3.2 2.1 5.1 2.1 1.6 0 3.1-.5 4.3-1.4.1.3.1.2.1.1 0 .1 0 0 0 0z"/><path d="M92.4 121.1c-1.6-1.3-2.8-1.8-4.3-1.8-.8 0-1.4.2-1.8.5-.4.3-.5.6-.5 1.1 0 1.2 1.5 1.8 3.3 2.5.9.3 1.9.7 2.7 1.2h.1s.1 0 .1-.1c.3-.8.5-1.7.5-2.6 0-.3-.1-.6-.1-.8z"/></g></svg>